<?xml version="1.0" encoding="UTF-8" standalone="no"?>
<!-- Created with Inkscape (http://www.inkscape.org/) -->

<svg
   width="200mm"
   height="200mm"
   viewBox="0 0 200 200"
   version="1.1"
   id="svg5"
   inkscape:version="1.1.1 (3bf5ae0d25, 2021-09-20)"
   sodipodi:docname="Logo.svg"
   inkscape:export-filename="C:\Users\STUWU\dev\SEG2900\ousmanebarry-organization.github.io\images\Logo.png"
   inkscape:export-xdpi="130.048"
   inkscape:export-ydpi="130.048"
   xmlns:inkscape="http://www.inkscape.org/namespaces/inkscape"
   xmlns:sodipodi="http://sodipodi.sourceforge.net/DTD/sodipodi-0.dtd"
   xmlns="http://www.w3.org/2000/svg"
   xmlns:svg="http://www.w3.org/2000/svg">
  <sodipodi:namedview
     id="namedview7"
     pagecolor="#ffffff"
     bordercolor="#666666"
     borderopacity="1.0"
     inkscape:pageshadow="2"
     inkscape:pageopacity="0.0"
     inkscape:pagecheckerboard="0"
     inkscape:document-units="mm"
     showgrid="true"
     inkscape:snap-page="true"
     inkscape:snap-object-midpoints="true"
     inkscape:snap-to-guides="true"
     showguides="true"
     inkscape:snap-grids="true"
     inkscape:snap-bbox="true"
     inkscape:snap-bbox-midpoints="true"
     inkscape:snap-bbox-edge-midpoints="true"
     inkscape:bbox-nodes="true"
     inkscape:bbox-paths="true"
     objecttolerance="5.9"
     guidetolerance="10.8"
     inkscape:guide-bbox="true"
     inkscape:zoom="0.53039953"
     inkscape:cx="149.88701"
     inkscape:cy="462.85863"
     inkscape:window-width="1920"
     inkscape:window-height="1027"
     inkscape:window-x="-8"
     inkscape:window-y="-8"
     inkscape:window-maximized="1"
     inkscape:current-layer="layer1">
    <sodipodi:guide
       position="0,100.88242"
       orientation="1,0"
       id="guide1054" />
    <sodipodi:guide
       position="86.066508,200"
       orientation="0,-1"
       id="guide1056" />
    <sodipodi:guide
       position="58.906175,0"
       orientation="0,-1"
       id="guide1058" />
    <sodipodi:guide
       position="200,133.33373"
       orientation="1,0"
       id="guide1060" />
    <sodipodi:guide
       position="99.999998,210"
       orientation="1,0"
       id="guide1062" />
    <sodipodi:guide
       position="97.530879,94.015624"
       orientation="0,-1"
       id="guide1166" />
    <inkscape:grid
       type="xygrid"
       id="grid1687"
       spacingx="0.5"
       spacingy="0.5"
       originx="0"
       originy="0"
       units="mm"
       color="#e3dd2f"
       opacity="0.1254902"
       empcolor="#baa700"
       empopacity="0.25098039" />
  </sodipodi:namedview>
  <defs
     id="defs2">
    <inkscape:path-effect
       effect="bspline"
       id="path-effect6787"
       is_visible="true"
       lpeversion="1"
       weight="33.333333"
       steps="2"
       helper_size="0"
       apply_no_weight="true"
       apply_with_weight="true"
       only_selected="false" />
    <inkscape:path-effect
       effect="bspline"
       id="path-effect6228"
       is_visible="true"
       lpeversion="1"
       weight="33.333333"
       steps="2"
       helper_size="0"
       apply_no_weight="true"
       apply_with_weight="true"
       only_selected="false" />
    <inkscape:path-effect
       effect="bspline"
       id="path-effect6110"
       is_visible="true"
       lpeversion="1"
       weight="33.333333"
       steps="2"
       helper_size="0"
       apply_no_weight="true"
       apply_with_weight="true"
       only_selected="false" />
    <inkscape:path-effect
       effect="spiro"
       id="path-effect5241"
       is_visible="true"
       lpeversion="1" />
    <inkscape:path-effect
       effect="spiro"
       id="path-effect5122"
       is_visible="true"
       lpeversion="1" />
    <inkscape:path-effect
       effect="spiro"
       id="path-effect5118"
       is_visible="true"
       lpeversion="1" />
    <inkscape:path-effect
       effect="spiro"
       id="path-effect5114"
       is_visible="true"
       lpeversion="1" />
    <inkscape:path-effect
       effect="spiro"
       id="path-effect4963"
       is_visible="true"
       lpeversion="1" />
    <inkscape:path-effect
       effect="spiro"
       id="path-effect4926"
       is_visible="true"
       lpeversion="1" />
    <clipPath
       clipPathUnits="userSpaceOnUse"
       id="clipPath1648">
      <rect
         style="fill:#0000ff;fill-rule:evenodd;stroke-width:0.264583"
         id="rect1650"
         width="107.58314"
         height="100.88123"
         x="62.786221"
         y="87.477432" />
    </clipPath>
    <clipPath
       clipPathUnits="userSpaceOnUse"
       id="clipPath13562">
      <path
         id="path13564"
         style="opacity:1"
         d="M 92.126,-22.776382 H 243.3071 V 260.68819 H 92.126 Z" />
    </clipPath>
    <clipPath
       clipPathUnits="userSpaceOnUse"
       id="clipPath13780">
      <rect
         style="opacity:1;fill:#000000;fill-opacity:1"
         id="rect13782"
         width="207.87401"
         height="141.73228"
         x="35.433105"
         y="-8.6031532" />
    </clipPath>
    <clipPath
       clipPathUnits="userSpaceOnUse"
       id="clipPath13780-1">
      <rect
         style="opacity:1;fill:#000000;fill-opacity:1"
         id="rect13782-0"
         width="207.87401"
         height="141.73228"
         x="35.433105"
         y="-8.6031532" />
    </clipPath>
  </defs>
  <g
     inkscape:label="Layer 1"
     inkscape:groupmode="layer"
     id="layer1"
     transform="translate(-19.047504,-25.396675)">
    <path
       id="path2048"
       style="fill:#ffffff;fill-opacity:1;stroke:none;stroke-width:0.264583px;stroke-linecap:butt;stroke-linejoin:miter;stroke-opacity:1"
       d="m 119.0475,30.396252 -92.500289,34.999931 5.000212,7.500316 87.500077,-32.499824 87.50009,32.499824 4.99969,-7.500316 z M 36.547634,75.396605 c 0,3.333332 -4.5e-4,6.666777 0.833024,8.333343 0.833466,1.666565 1.666753,1.666491 3.333647,3.333128 0.606906,0.606811 0.833541,3.333131 0.833541,3.333131 v 65.000163 h -5.000212 v 9.9999 h 44.356465 c -3.759039,-2.93107 -7.180398,-6.29162 -10.176124,-9.9999 h -14.18001 l 0.499192,-62.500057 c 0,-4 2.355498,-6.427301 4.500502,-7.499802 1.365207,-0.682602 2.873105,-1.045888 4.396631,-1.125511 1.895957,-3.140422 4.064675,-6.115529 6.482292,-8.874395 z m 129.211226,0 c 2.42072,2.758665 4.58968,5.734129 6.47868,8.879562 1.49389,0.08936 2.97056,0.45072 4.30981,1.120344 2.14501,1.072501 5.00021,3.499802 5.00021,7.499802 V 155.39637 H 167.3722 c -0.008,0.009 -0.0146,0.019 -0.0222,0.0284 -2.97307,3.71824 -6.39513,7.0593 -10.1508,9.97148 h 44.3482 v -9.9999 h -4.9997 V 95.396419 h -5.3e-4 v -1.666565 c 0,-0.05208 5.3e-4,-0.118917 5.3e-4,-0.174152 v -3.159495 c 0,0 0.19442,-2.694541 0.83302,-3.333131 1.66671,-1.666637 2.50045,-1.666563 3.33365,-3.333128 0.8332,-1.666566 0.83303,-5.000011 0.83303,-8.333343 z M 31.547423,170.39649 v 9.9999 H 206.54759 v -9.9999 h -56.86165 c -5.72279,3.24026 -11.95266,5.58811 -18.40042,6.8864 -12.45925,2.56183 -25.67966,1.08239 -37.302633,-4.06436 -1.919203,-0.83953 -3.787458,-1.78828 -5.60741,-2.82204 z m -7.365442,15.0027 v 9.99474 H 216.41262 v -9.99474 z"
       sodipodi:nodetypes="ccccccccssccccccccscccccsscccccccccsscsscccccccccccccccc" />
    <path
       id="path14785"
       style="fill:#ffffff;fill-opacity:1;stroke-width:0.44391;stroke:none"
       d="m 119.0474,58.990393 a 57.390426,57.390426 0 0 0 -7.36873,0.527142 c -0.56594,0.07355 -1.1293,0.160798 -1.6924,0.251436 a 57.390426,57.390426 0 0 0 -6.26158,1.36294 c -0.36165,0.101471 -0.73059,0.166019 -1.09069,0.274844 a 57.390426,57.390426 0 0 0 -6.378617,2.379083 c -0.834921,0.361569 -1.644946,0.761588 -2.457111,1.159193 a 57.390426,57.390426 0 0 0 -4.437369,2.4233 c -0.601808,0.363075 -1.223151,0.699143 -1.809451,1.082897 a 57.390426,57.390426 0 0 0 -5.58096,4.178134 c -0.465251,0.39352 -0.901422,0.81798 -1.353407,1.225954 a 57.390426,57.390426 0 0 0 -4.094901,4.094898 c -0.408249,0.452287 -0.83304,0.888704 -1.22682,1.354273 a 57.390426,57.390426 0 0 0 -4.17726,5.580959 c -0.385416,0.588828 -0.722683,1.212788 -1.087233,1.817258 a 57.390426,57.390426 0 0 0 -2.415498,4.42263 c -0.399161,0.81505 -0.801539,1.6278 -1.1644,2.46578 a 57.390426,57.390426 0 0 0 -2.340064,6.27457 c -0.162505,0.536886 -0.261094,1.084156 -0.407496,1.623906 a 57.390426,57.390426 0 0 0 -1.227688,5.64338 c -0.112953,0.6819 -0.216365,1.36454 -0.304323,2.04875 a 57.390426,57.390426 0 0 0 -0.514136,7.19967 57.390426,57.390426 0 0 0 0.526272,7.37047 c 0.07325,0.5632 0.16039,1.12469 0.250571,1.68634 a 57.390426,57.390426 0 0 0 1.414965,6.50259 c 0.07254,0.25687 0.118004,0.51803 0.19421,0.77424 a 57.390426,57.390426 0 0 0 2.649587,7.10343 c 0.116793,0.26152 0.236006,0.52118 0.356344,0.78032 a 57.390426,57.390426 0 0 0 3.615439,6.62223 c 0.07334,0.11563 0.146986,0.23094 0.221088,0.34594 a 57.390426,57.390426 0 0 0 48.161658,26.20458 57.390426,57.390426 0 0 0 15.84982,-2.2551 c 0.17131,-0.0492 0.34408,-0.0914 0.51502,-0.14219 a 57.390426,57.390426 0 0 0 14.28055,-6.50433 c 0.17783,-0.11227 0.36476,-0.21369 0.54104,-0.32773 a 57.390426,57.390426 0 0 0 6.30925,-4.72348 c 0.0942,-0.0815 0.18032,-0.17028 0.27398,-0.2523 a 57.390426,57.390426 0 0 0 5.15438,-5.15439 c 0.23114,-0.26171 0.47187,-0.5156 0.69791,-0.78118 a 57.390426,57.390426 0 0 0 4.54316,-6.06995 c 0.13619,-0.21098 0.25072,-0.43414 0.38412,-0.64679 a 57.390426,57.390426 0 0 0 3.20445,-5.86881 c 0.22986,-0.48283 0.4677,-0.96159 0.68407,-1.45051 a 57.390426,57.390426 0 0 0 2.56637,-6.88147 c 0.0665,-0.22318 0.10961,-0.45313 0.17339,-0.67714 a 57.390426,57.390426 0 0 0 1.4713,-6.76529 c 0.0668,-0.42095 0.13859,-0.84048 0.19599,-1.26324 a 57.390426,57.390426 0 0 0 0.54534,-7.62624 57.390426,57.390426 0 0 0 -0.0164,-0.66413 c -0.0115,-1.08375 -0.0603,-2.1694 -0.13441,-3.2565 a 57.390426,57.390426 0 0 0 -0.21242,-2.40509 c -0.12216,-1.10011 -0.2786,-2.19987 -0.46646,-3.29898 a 57.390426,57.390426 0 0 0 -0.38842,-2.0869 c -0.26639,-1.27042 -0.57859,-2.5378 -0.9355,-3.80098 a 57.390426,57.390426 0 0 0 -2.50307,-7.100826 c -0.37617,-0.87559 -0.77174,-1.73861 -1.18693,-2.58803 a 57.390426,57.390426 0 0 0 -0.65286,-1.29618 c -0.43152,-0.82963 -0.8828,-1.64418 -1.35082,-2.44672 a 57.390426,57.390426 0 0 0 -0.99098,-1.62477 c -0.38771,-0.6171 -0.7839,-1.227352 -1.19301,-1.8268 a 57.390426,57.390426 0 0 0 -1.0482,-1.487791 c -0.34159,-0.467948 -0.69797,-0.922383 -1.05256,-1.378551 a 57.390426,57.390426 0 0 0 -2.20654,-2.666928 c -0.24828,-0.282398 -0.49474,-0.566497 -0.74826,-0.843601 a 57.390426,57.390426 0 0 0 -1.63257,-1.714084 c -0.1373,-0.138163 -0.27926,-0.270812 -0.4179,-0.407495 a 57.390426,57.390426 0 0 0 -3.69693,-3.340598 c -0.0681,-0.05634 -0.13454,-0.114781 -0.20291,-0.170799 a 57.390426,57.390426 0 0 0 -2.1649,-1.689812 c -2.4e-4,-2.3e-4 0,-5.29e-4 0,-0.0011 a 57.390426,57.390426 0 0 0 -0.004,-0.0019 57.390426,57.390426 0 0 0 -7.09217,-4.49372 c -0.0463,-0.02476 -0.0933,-0.04819 -0.13957,-0.07283 a 57.390426,57.390426 0 0 0 -4.90729,-2.320129 c -0.0355,-0.01474 -0.0702,-0.03125 -0.10579,-0.04595 a 57.390426,57.390426 0 0 0 -2.3964,-0.924234 c -0.23256,-0.084 -0.46762,-0.16173 -0.70142,-0.242766 a 57.390426,57.390426 0 0 0 -3.99262,-1.222486 c -0.3791,-0.101097 -0.75567,-0.209137 -1.13752,-0.302588 a 57.390426,57.390426 0 0 0 -1.9889,-0.447379 c -0.59723,-0.123822 -1.19864,-0.233945 -1.80165,-0.339 a 57.390426,57.390426 0 0 0 -2.25511,-0.352875 c -0.8753,-0.116898 -1.75384,-0.219562 -2.63918,-0.296516 a 57.390426,57.390426 0 0 0 -1.41585,-0.104044 c -1.017,-0.06331 -2.03879,-0.105667 -3.06662,-0.115311 a 57.390426,57.390426 0 0 0 -0.54446,-0.01299 z m 4.03941,8.827052 c 7.54648,2.397115 14.51587,11.808185 18.64423,24.148889 H 123.08681 Z M 115.008,68.039399 V 91.966334 H 96.940326 C 100.97991,79.936367 107.68348,70.702862 115.008,68.039399 Z m -16.735941,3.5955 c -1.376125,1.864423 -2.707336,3.906758 -3.905893,6.126308 -2.397117,4.305929 -4.35084,9.100157 -5.860135,14.205127 H 76.210063 C 81.226249,83.04374 88.86116,75.98522 98.272059,71.634899 Z m 42.349201,0.355475 c 8.87821,4.261538 16.3359,11.186536 21.30769,19.97596 h -11.76362 c -1.50929,-5.10497 -3.46214,-9.94359 -5.85925,-14.205127 -1.15417,-2.086378 -2.39747,-3.995193 -3.68482,-5.770833 z M 72.481045,100.00093 h 14.02739 c -1.020993,5.32692 -1.553686,10.83106 -1.553686,16.29116 0,5.06058 0.710258,10.74246 1.997596,16.4689 h -14.4713 c -3.773237,-10.65385 -3.773237,-22.10621 0,-32.76006 z m 22.239729,0 H 115.008 v 32.76006 H 95.120466 c -1.331732,-5.54888 -2.131115,-11.18637 -2.131115,-16.4689 0,-5.59327 0.621649,-11.09741 1.731423,-16.29116 z m 28.366036,0 h 20.86378 c 1.10978,5.19375 1.73143,10.69789 1.73143,16.29116 0,5.28253 -0.79939,10.96441 -2.13112,16.4689 h -20.46409 z m 29.07612,0 h 13.45084 c 3.86201,10.96458 3.59496,22.46134 -0.0451,32.76006 h -13.84965 c 1.28734,-5.72644 1.9976,-11.40832 1.9976,-16.4689 0,-5.4601 -0.5327,-10.96424 -1.55369,-16.29116 z m -75.997084,40.79552 h 12.961832 c 2.530287,7.76843 6.126133,15.22543 10.609645,21.04065 -9.810434,-4.17275 -18.155773,-11.49658 -23.571477,-21.04065 z m 21.396135,0 H 115.008 v 23.61568 c -6.96939,-2.88541 -13.36205,-12.38475 -17.446019,-23.61568 z m 25.524829,0 h 17.97836 c -4.21714,11.54167 -10.8314,21.26278 -17.97836,23.88185 z m 26.45687,0 h 12.38527 c -5.06057,8.83382 -12.78443,16.15764 -22.68363,20.59675 4.35032,-5.72645 7.81247,-13.00588 10.29836,-20.59675 z"
       inkscape:label="globe" />
    <g
       aria-label="UniNetwork"
       id="text47426"
       style="font-size:25.4px;line-height:1.25;stroke-width:0.264583;fill:#ffffff;fill-opacity:1;stroke:none">
      <path
         d="m 51.938422,213.00985 c 0,2.28203 -0.694531,4.03077 -2.083594,5.2462 -1.389062,1.21543 -3.435449,1.82314 -6.13916,1.82314 -2.703711,0 -4.750097,-0.60771 -6.13916,-1.82314 -1.380794,-1.21543 -2.071191,-2.96003 -2.071191,-5.23379 v -11.79463 h 4.787305 v 11.52178 c 0,1.28157 0.268717,2.23655 0.806152,2.86494 0.537435,0.62838 1.409733,0.94257 2.616894,0.94257 1.190625,0 2.058789,-0.30179 2.604492,-0.90537 0.553971,-0.60358 0.830957,-1.57096 0.830957,-2.90214 v -14.85273 h 4.787305 z"
         style="font-weight:bold;-inkscape-font-specification:'sans-serif, Bold';fill:#ffffff;fill-opacity:1;stroke:none"
         id="path60602"
         sodipodi:nodetypes="ssscsccssscsccs" />
      <path
         d="m 70.13266,219.69472 h -4.489648 v -6.90811 q 0,-0.84336 -0.08682,-1.67431 -0.08682,-0.84336 -0.297656,-1.24024 -0.248047,-0.45889 -0.731738,-0.66973 -0.471289,-0.21084 -1.327051,-0.21084 -0.607715,0 -1.240234,0.19844 -0.620118,0.19844 -1.351856,0.63252 v 9.87227 h -4.464843 v -13.92783 h 4.464843 v 1.53789 q 1.190625,-0.93018 2.282031,-1.42627 1.103809,-0.4961 2.443262,-0.4961 2.257227,0 3.522266,1.31465 1.277441,1.31465 1.277441,3.93154 z"
         style="font-weight:bold;-inkscape-font-specification:'sans-serif, Bold';fill:#ffffff;fill-opacity:1;stroke:none"
         id="path60604" />
      <path
         d="m 78.702679,219.69472 h -4.464844 v -13.92783 h 4.464844 z m 0.124023,-15.91221 h -4.712891 v -3.38584 h 4.712891 z"
         style="font-weight:bold;-inkscape-font-specification:'sans-serif, Bold';fill:#ffffff;fill-opacity:1;stroke:none"
         id="path60606" />
      <path
         d="m 99.960296,219.69472 h -4.588868 l -7.838281,-12.6752 v 12.6752 h -4.365625 v -18.46709 h 5.692676 l 6.734473,10.5792 v -10.5792 h 4.365625 z"
         style="font-weight:bold;-inkscape-font-specification:'sans-serif, Bold';fill:#ffffff;fill-opacity:1;stroke:none"
         id="path60608" />
      <path
         d="M 118.14213,213.55556 H 107.9226 q 0.0992,1.63711 1.24023,2.50527 1.15342,0.86816 3.38584,0.86816 1.41387,0 2.74092,-0.50849 1.32705,-0.5085 2.096,-1.09141 h 0.49609 v 3.58428 q -1.51309,0.60771 -2.85254,0.88057 -1.33945,0.27285 -2.96416,0.27285 -4.19199,0 -6.42441,-1.88516 -2.23243,-1.88515 -2.23243,-5.37021 0,-3.44785 2.1084,-5.45703 2.1208,-2.02159 5.8043,-2.02159 3.39824,0 5.10977,1.72393 1.71152,1.71152 1.71152,4.93613 z m -4.44004,-2.6169 q -0.0372,-1.40146 -0.69453,-2.1084 -0.65733,-0.70693 -2.04639,-0.70693 -1.28984,0 -2.1208,0.66973 -0.83096,0.66972 -0.93017,2.1456 z"
         style="font-weight:bold;-inkscape-font-specification:'sans-serif, Bold';fill:#ffffff;fill-opacity:1;stroke:none"
         id="path60610" />
      <path
         d="m 130.19721,219.57069 q -0.71934,0.18604 -1.52549,0.28526 -0.80615,0.11162 -1.97197,0.11162 -2.6045,0 -3.88194,-1.0542 -1.26504,-1.0542 -1.26504,-3.60908 v -6.51123 h -1.83554 v -3.02617 h 1.83554 v -3.98116 h 4.46485 v 3.98116 h 4.17959 v 3.02617 h -4.17959 v 4.93613 q 0,0.73174 0.0124,1.27744 0.0124,0.5457 0.19844,0.97979 0.17363,0.43408 0.60771,0.69453 0.44649,0.24804 1.28985,0.24804 0.34726,0 0.90537,-0.14882 0.5705,-0.14883 0.79375,-0.27285 h 0.37207 z"
         style="font-weight:bold;-inkscape-font-specification:'sans-serif, Bold';fill:#ffffff;fill-opacity:1;stroke:none"
         id="path60612" />
      <path
         d="m 155.07631,205.76689 -4.31602,13.92783 h -4.73769 l -2.84014,-9.38858 -2.79053,9.38858 h -4.7997 l -4.27881,-13.92783 h 4.68809 l 2.38125,9.59941 2.97656,-9.59941 h 3.95635 l 2.82773,9.59941 2.34404,-9.59941 z"
         style="font-weight:bold;-inkscape-font-specification:'sans-serif, Bold';fill:#ffffff;fill-opacity:1;stroke:none"
         id="path60614" />
      <path
         d="m 171.98071,212.737 q 0,3.43545 -2.00918,5.41983 -1.99678,1.97197 -5.61826,1.97197 -3.62149,0 -5.63067,-1.97197 -1.99678,-1.98438 -1.99678,-5.41983 0,-3.46025 2.00918,-5.43222 2.02159,-1.97198 5.61827,-1.97198 3.64629,0 5.63066,1.98438 1.99678,1.98437 1.99678,5.41982 z m -5.49424,3.38584 q 0.43408,-0.5333 0.64492,-1.27744 0.22324,-0.75654 0.22324,-2.08359 0,-1.22783 -0.22324,-2.05879 -0.22324,-0.83096 -0.62012,-1.32705 -0.39687,-0.5085 -0.95498,-0.71934 -0.5581,-0.21084 -1.20302,-0.21084 -0.64493,0 -1.15342,0.17363 -0.4961,0.17364 -0.95498,0.69454 -0.40928,0.48369 -0.65733,1.32705 -0.23564,0.84336 -0.23564,2.1208 0,1.14101 0.21084,1.98437 0.21084,0.83096 0.62012,1.33946 0.39687,0.48369 0.94257,0.70693 0.55811,0.22324 1.26504,0.22324 0.60772,0 1.15342,-0.19844 0.55811,-0.21084 0.94258,-0.69453 z"
         style="font-weight:bold;-inkscape-font-specification:'sans-serif, Bold';fill:#ffffff;fill-opacity:1;stroke:none"
         id="path60616" />
      <path
         d="m 185.27601,210.02089 h -0.39688 q -0.28525,-0.0992 -0.91777,-0.14883 -0.63252,-0.0496 -1.0542,-0.0496 -0.95498,0 -1.68672,0.12403 -0.73174,0.12402 -1.5751,0.42168 v 9.32656 H 175.1805 V 205.7669 h 4.46484 v 2.04638 q 1.47588,-1.26504 2.56729,-1.67431 1.09141,-0.42168 2.00918,-0.42168 0.23564,0 0.5333,0.0124 0.29766,0.0124 0.5209,0.0372 z"
         style="font-weight:bold;-inkscape-font-specification:'sans-serif, Bold';fill:#ffffff;fill-opacity:1;stroke:none"
         id="path60618" />
      <path
         d="m 202.58969,219.69472 h -5.19658 l -3.90674,-6.06475 -1.21543,1.47588 v 7.79083 h -4.46484 v -22.50001 h 4.46484 v 11.52178 l 4.81211,-6.15156 h 5.14697 l -5.01055,6.00273 z"
         style="font-weight:bold;-inkscape-font-specification:'sans-serif, Bold';fill:#ffffff;fill-opacity:1;stroke:none"
         id="path60620"
         sodipodi:nodetypes="ccccccccccccc" />
    </g>
  </g>
</svg>
