<?xml version="1.0" encoding="UTF-8" standalone="no"?>
<!-- Created with Inkscape (http://www.inkscape.org/) -->

<svg
   width="200mm"
   height="200mm"
   viewBox="0 0 200 200"
   version="1.1"
   id="svg5"
   inkscape:version="1.1.1 (3bf5ae0d25, 2021-09-20)"
   sodipodi:docname="LogoWhite.svg"
   inkscape:export-filename="C:\Users\STUWU\dev\SEG2900\ousmanebarry-organization.github.io\images\Logo.png"
   inkscape:export-xdpi="130.048"
   inkscape:export-ydpi="130.048"
   xmlns:inkscape="http://www.inkscape.org/namespaces/inkscape"
   xmlns:sodipodi="http://sodipodi.sourceforge.net/DTD/sodipodi-0.dtd"
   xmlns="http://www.w3.org/2000/svg"
   xmlns:svg="http://www.w3.org/2000/svg">
  <sodipodi:namedview
     id="namedview7"
     pagecolor="#000000"
     bordercolor="#666666"
     borderopacity="1.0"
     inkscape:pageshadow="2"
     inkscape:pageopacity="0"
     inkscape:pagecheckerboard="0"
     inkscape:document-units="mm"
     showgrid="true"
     inkscape:snap-page="true"
     inkscape:snap-object-midpoints="true"
     inkscape:snap-to-guides="true"
     showguides="true"
     inkscape:snap-grids="true"
     inkscape:snap-bbox="true"
     inkscape:snap-bbox-midpoints="true"
     inkscape:snap-bbox-edge-midpoints="true"
     inkscape:bbox-nodes="true"
     inkscape:bbox-paths="true"
     objecttolerance="5.9"
     guidetolerance="10.8"
     inkscape:guide-bbox="true"
     inkscape:zoom="0.53039953"
     inkscape:cx="-170.62609"
     inkscape:cy="257.35317"
     inkscape:window-width="1920"
     inkscape:window-height="1027"
     inkscape:window-x="-8"
     inkscape:window-y="-8"
     inkscape:window-maximized="1"
     inkscape:current-layer="layer1">
    <sodipodi:guide
       position="0,100.88242"
       orientation="1,0"
       id="guide1054" />
    <sodipodi:guide
       position="86.066508,200"
       orientation="0,-1"
       id="guide1056" />
    <sodipodi:guide
       position="58.906175,0"
       orientation="0,-1"
       id="guide1058" />
    <sodipodi:guide
       position="200,133.33373"
       orientation="1,0"
       id="guide1060" />
    <sodipodi:guide
       position="99.999998,210"
       orientation="1,0"
       id="guide1062" />
    <sodipodi:guide
       position="97.530879,94.015624"
       orientation="0,-1"
       id="guide1166" />
    <inkscape:grid
       type="xygrid"
       id="grid1687"
       spacingx="0.5"
       spacingy="0.5"
       originx="0"
       originy="0"
       units="mm"
       color="#e3dd2f"
       opacity="0.1254902"
       empcolor="#baa700"
       empopacity="0.25098039" />
  </sodipodi:namedview>
  <defs
     id="defs2">
    <inkscape:path-effect
       effect="bspline"
       id="path-effect6787"
       is_visible="true"
       lpeversion="1"
       weight="33.333333"
       steps="2"
       helper_size="0"
       apply_no_weight="true"
       apply_with_weight="true"
       only_selected="false" />
    <inkscape:path-effect
       effect="bspline"
       id="path-effect6228"
       is_visible="true"
       lpeversion="1"
       weight="33.333333"
       steps="2"
       helper_size="0"
       apply_no_weight="true"
       apply_with_weight="true"
       only_selected="false" />
    <inkscape:path-effect
       effect="bspline"
       id="path-effect6110"
       is_visible="true"
       lpeversion="1"
       weight="33.333333"
       steps="2"
       helper_size="0"
       apply_no_weight="true"
       apply_with_weight="true"
       only_selected="false" />
    <inkscape:path-effect
       effect="spiro"
       id="path-effect5241"
       is_visible="true"
       lpeversion="1" />
    <inkscape:path-effect
       effect="spiro"
       id="path-effect5122"
       is_visible="true"
       lpeversion="1" />
    <inkscape:path-effect
       effect="spiro"
       id="path-effect5118"
       is_visible="true"
       lpeversion="1" />
    <inkscape:path-effect
       effect="spiro"
       id="path-effect5114"
       is_visible="true"
       lpeversion="1" />
    <inkscape:path-effect
       effect="spiro"
       id="path-effect4963"
       is_visible="true"
       lpeversion="1" />
    <inkscape:path-effect
       effect="spiro"
       id="path-effect4926"
       is_visible="true"
       lpeversion="1" />
    <clipPath
       clipPathUnits="userSpaceOnUse"
       id="clipPath1648">
      <rect
         style="fill:#0000ff;fill-rule:evenodd;stroke-width:0.264583"
         id="rect1650"
         width="107.58314"
         height="100.88123"
         x="62.786221"
         y="87.477432" />
    </clipPath>
    <clipPath
       clipPathUnits="userSpaceOnUse"
       id="clipPath13562">
      <path
         id="path13564"
         style="opacity:1"
         d="M 92.126,-22.776382 H 243.3071 V 260.68819 H 92.126 Z" />
    </clipPath>
    <clipPath
       clipPathUnits="userSpaceOnUse"
       id="clipPath13780">
      <rect
         style="opacity:1;fill:#000000;fill-opacity:1"
         id="rect13782"
         width="207.87401"
         height="141.73228"
         x="35.433105"
         y="-8.6031532" />
    </clipPath>
    <clipPath
       clipPathUnits="userSpaceOnUse"
       id="clipPath13780-1">
      <rect
         style="opacity:1;fill:#000000;fill-opacity:1"
         id="rect13782-0"
         width="207.87401"
         height="141.73228"
         x="35.433105"
         y="-8.6031532" />
    </clipPath>
  </defs>
  <g
     inkscape:label="Layer 1"
     inkscape:groupmode="layer"
     id="layer1"
     transform="translate(-19.047504,-25.396675)">
    <path
       id="path2048"
       style="fill:#ffffff;fill-opacity:1;stroke:none;stroke-width:0.264583px;stroke-linecap:butt;stroke-linejoin:miter;stroke-opacity:1"
       d="m 119.0475,42.896252 -93.750087,35.001514 6.250006,7.498732 87.500081,-32.499823 87.50008,32.499823 4.9997,-7.500315 z m -1.25032,28.595187 5.3e-4,5.29e-4 c -2.46512,0.01725 -4.92658,0.193315 -7.36906,0.5271 -0.56594,0.07355 -1.1293,0.16051 -1.6924,0.251148 -2.11097,0.337431 -4.20145,0.792548 -6.26164,1.363223 -0.36165,0.101471 -0.73027,0.166095 -1.09037,0.274918 -2.171521,0.66613 -4.301581,1.460589 -6.378939,2.379184 -0.834919,0.361569 -1.644531,0.761497 -2.456696,1.159102 -1.51403,0.742124 -2.994618,1.550611 -4.437457,2.423107 -0.601808,0.363075 -1.223406,0.699384 -1.809707,1.083138 -1.943301,1.278293 -3.80709,2.673547 -5.581055,4.178041 -0.465251,0.39352 -0.901422,0.81779 -1.353407,1.225764 -1.432986,1.295168 -2.799672,2.661854 -4.09484,4.09484 -0.408249,0.452287 -0.833017,0.88887 -1.226799,1.354439 -1.504139,1.773993 -2.899047,3.637782 -4.177006,5.581055 -0.385416,0.58883 -0.72272,1.212474 -1.087271,1.816944 -0.869493,1.438249 -1.675389,2.914009 -2.415357,4.422989 -0.399161,0.81505 -0.801926,1.6275 -1.164786,2.46548 -0.901434,2.04419 -1.682733,4.13927 -2.339909,6.27455 -0.162504,0.53689 -0.261326,1.08445 -0.407728,1.6242 -0.503546,1.85923 -0.913169,3.74264 -1.227315,5.64306 -0.112953,0.6819 -0.216416,1.36476 -0.304374,2.04897 -0.322286,2.38669 -0.494019,4.7913 -0.51418,7.19956 0.01684,2.46562 0.19256,4.92758 0.526065,7.3706 0.07325,0.5632 0.160452,1.12455 0.250632,1.68621 0.345467,2.19302 0.817894,4.36415 1.414899,6.50244 0.07254,0.25687 0.1181,0.51842 0.194305,0.77463 0.725616,2.42362 1.610697,4.79661 2.64945,7.10344 0.116793,0.26152 0.236231,0.52118 0.356569,0.78032 1.05855,2.28418 2.266253,4.49624 3.615282,6.62183 0.07334,0.11563 0.147074,0.23123 0.221176,0.34622 10.573554,16.3347 28.703695,26.1992 48.161918,26.2046 5.36264,-0.008 10.69776,-0.76662 15.84968,-2.25515 0.17131,-0.0492 0.34427,-0.0913 0.51521,-0.14211 5.03545,-1.50412 9.84044,-3.69274 14.28027,-6.50452 0.17783,-0.11227 0.36477,-0.21359 0.54105,-0.32763 2.20882,-1.42814 4.31685,-3.00644 6.30917,-4.72374 0.0942,-0.0815 0.18023,-0.17017 0.27389,-0.25218 1.82573,-1.6071 3.54744,-3.32864 5.15472,-5.15421 0.23114,-0.26171 0.47159,-0.51577 0.69764,-0.78135 1.64661,-1.92094 3.16438,-3.94867 4.54339,-6.06991 0.13619,-0.21098 0.25055,-0.43383 0.38395,-0.64648 1.18131,-1.89235 2.25128,-3.85198 3.20446,-5.86889 0.22986,-0.48283 0.46782,-0.96163 0.68419,-1.45055 1.00148,-2.23677 1.85865,-4.5354 2.56626,-6.88176 0.0665,-0.22318 0.10985,-0.45294 0.17363,-0.67696 0.62612,-2.2235 1.11742,-4.48277 1.47123,-6.76548 0.0668,-0.42095 0.13845,-0.8402 0.19585,-1.26297 0.35105,-2.52719 0.53319,-5.07497 0.54519,-7.6264 -0.004,-0.22138 -0.009,-0.44273 -0.016,-0.66405 -0.0115,-1.08374 -0.0608,-2.16954 -0.13487,-3.25664 -0.0539,-0.80307 -0.12474,-1.60492 -0.21239,-2.40502 -0.12216,-1.10011 -0.27826,-2.19991 -0.46612,-3.29902 -0.11666,-0.6979 -0.24622,-1.39359 -0.38861,-2.0867 -0.26639,-1.27041 -0.57843,-2.53813 -0.93534,-3.80131 -0.6781,-2.41902 -1.5143,-4.79091 -2.50321,-7.10035 -0.37617,-0.87559 -0.77182,-1.73905 -1.18701,-2.58847 -0.21209,-0.43475 -0.42966,-0.8668 -0.65267,-1.29605 -0.43152,-0.82963 -0.8828,-1.64434 -1.35082,-2.446877 -0.32138,-0.54701 -0.65182,-1.088653 -0.99116,-1.624706 -0.38771,-0.617101 -0.78358,-1.227315 -1.19269,-1.826763 -0.34162,-0.501433 -0.69116,-0.997417 -1.04851,-1.487765 -0.34159,-0.467947 -0.69806,-0.922041 -1.05265,-1.378209 -0.70854,-0.910991 -1.4444,-1.800403 -2.20658,-2.667021 -0.24829,-0.282398 -0.49476,-0.566772 -0.74828,-0.843876 -0.53231,-0.582532 -1.07658,-1.154023 -1.63246,-1.714108 -0.1373,-0.138163 -0.2789,-0.270526 -0.41755,-0.40721 -1.18336,-1.166624 -2.41683,-2.281301 -3.69693,-3.34088 -0.0681,-0.05634 -0.13471,-0.114514 -0.20308,-0.170532 -0.70799,-0.580459 -1.42978,-1.143894 -2.16473,-1.68982 -2.4e-4,-2.3e-4 0,-5.29e-4 0,-0.0011 l -0.004,-0.0021 c -2.25114,-1.669073 -4.6215,-3.171019 -7.09207,-4.493783 -0.0463,-0.02477 -0.0933,-0.04822 -0.13953,-0.07286 -1.59839,-0.850404 -3.23612,-1.624694 -4.90771,-2.320272 -0.0355,-0.01474 -0.0698,-0.03078 -0.10542,-0.04547 -0.79192,-0.326009 -1.59104,-0.63425 -2.39675,-0.924494 -0.23256,-0.084 -0.46745,-0.161843 -0.70125,-0.242877 -1.31558,-0.455676 -2.6473,-0.863328 -3.99252,-1.222148 -0.3791,-0.101097 -0.75555,-0.209372 -1.1374,-0.302826 -0.66031,-0.160938 -1.32342,-0.310133 -1.98903,-0.447516 -0.59722,-0.123822 -1.19894,-0.233942 -1.80195,-0.338998 -0.74913,-0.132583 -1.50083,-0.250256 -2.25464,-0.352951 -0.8753,-0.116898 -1.7543,-0.219152 -2.63964,-0.296106 -0.47136,-0.04063 -0.94319,-0.07543 -1.41541,-0.104386 -1.017,-0.06331 -2.03917,-0.105595 -3.067,-0.115239 -0.18136,-0.0052 -0.36275,-0.0095 -0.54415,-0.01291 z m 4.03955,8.827367 c 7.54648,2.397115 14.51598,11.808209 18.64434,24.148914 h -18.64434 z m -8.07858,0.222208 V 104.46772 H 95.690519 C 99.730103,92.437752 106.43363,83.204477 113.75815,80.541014 Z m -16.73593,3.595129 c -1.376125,1.864424 -2.707148,3.907208 -3.905705,6.126758 -2.397117,4.30593 -4.35133,9.099849 -5.860624,14.204819 H 74.960002 C 79.976187,95.545125 87.611321,88.486465 97.02222,84.136143 Z m 42.34935,0.355534 c 8.87821,4.261538 16.33544,11.186618 21.30723,19.976043 h -11.76361 c -1.50929,-5.10497 -3.46197,-9.943281 -5.85907,-14.204819 -1.15418,-2.086377 -2.39719,-3.995584 -3.68453,-5.771224 z M 35.297823,87.898188 c 0,3.333331 -4.5e-4,6.666774 0.833024,8.333343 0.833466,1.666562 1.666753,1.666491 3.333647,3.333128 0.606906,0.606811 0.83354,3.333131 0.83354,3.333131 v 65.00016 h -5.000198 v 9.99991 h 44.356465 c -3.759039,-2.93107 -7.180398,-6.29163 -10.176124,-9.99991 h -14.18001 l 0.499192,-62.50005 c 0,-4 2.355498,-6.427305 4.500501,-7.499807 1.365208,-0.682601 2.873105,-1.045887 4.396632,-1.125511 1.895956,-3.140421 4.064674,-6.115529 6.482291,-8.874394 z m 129.211237,0 c 2.42072,2.758664 4.58967,5.734129 6.47867,8.879562 1.49389,0.08936 2.97056,0.45072 4.30981,1.120343 2.14502,1.072502 5.00022,3.499807 5.00022,7.499807 v 62.50005 h -14.17537 c -0.008,0.009 -0.0146,0.019 -0.0222,0.0284 -2.97307,3.71824 -6.39513,7.05931 -10.1508,9.97149 h 44.34821 v -9.99991 h -4.99969 V 107.898 h -5.3e-4 v -1.66656 c 0,-0.0521 5.3e-4,-0.11892 5.3e-4,-0.17415 v -3.1595 c 0,0 0.19442,-2.69454 0.83302,-3.333131 1.66671,-1.666637 2.50045,-1.666566 3.33365,-3.333128 0.8332,-1.666569 0.83302,-5.000012 0.83302,-8.333343 z M 71.231028,112.50237 h 14.027568 c -1.020993,5.32692 -1.553908,10.83089 -1.553908,16.29099 0,5.06058 0.710472,10.74284 1.99781,16.46928 h -14.47147 c -3.773236,-10.65385 -3.773236,-22.10642 0,-32.76027 z m 22.239989,0 h 20.287133 v 32.76027 H 93.870474 c -1.331733,-5.54888 -2.131137,-11.18675 -2.131137,-16.46928 0,-5.59327 0.621903,-11.09724 1.73168,-16.29099 z m 28.365713,0 h 20.86384 c 1.10978,5.19375 1.73168,10.69772 1.73168,16.29099 0,5.28253 -0.79941,10.96479 -2.13114,16.46928 h -20.46438 z m 29.07626,0 h 13.45085 c 3.86202,10.96458 3.59511,22.46155 -0.045,32.76027 h -13.8498 c 1.28734,-5.72644 1.99781,-11.4087 1.99781,-16.46928 0,-5.4601 -0.53292,-10.96407 -1.55391,-16.29099 z m -75.996914,40.79544 h 12.961482 c 2.530287,7.76843 6.126176,15.22535 10.609689,21.04057 -9.810435,-4.17275 -18.155468,-11.4965 -23.571171,-21.04057 z m 21.396111,0 h 17.445963 v 23.61561 c -6.96939,-2.88541 -13.362,-12.38468 -17.445963,-23.61561 z m 25.524543,0 h 17.97874 c -4.21714,11.54167 -10.83179,21.26267 -17.97874,23.88174 z m 26.45729,0 h 12.38478 c -5.06057,8.83382 -12.78417,16.15756 -22.68337,20.59667 4.35032,-5.72645 7.8127,-13.0058 10.29859,-20.59667 z M 30.297611,182.89807 v 9.9999 H 205.29779 v -9.9999 h -56.86164 c -5.72279,3.24026 -11.95267,5.58811 -18.40043,6.8864 -12.45925,2.56183 -25.67966,1.0824 -37.302632,-4.06435 -1.919202,-0.83953 -3.787457,-1.78829 -5.607409,-2.82205 z m -7.365428,15.0027 v 9.99474 H 215.16283 v -9.99474 z"
       sodipodi:nodetypes="cccccccccccccccccccccccccccccccccccccccccccccccccccccccccccccccccccccccccssccccscccccsccccccccccccccccccccccccccsccssccccccccscccccsscccccccccsscssccccscccccccscccscccccccscccccccccccccccccccccccccccccccc" />
  </g>
</svg>
